<svg xmlns="http://www.w3.org/2000/svg" viewBox="0 0 1440 600" preserveAspectRatio="xMidYMid slice">
  <defs>
    <linearGradient id="bg3" x1="0%" y1="0%" x2="100%" y2="100%">
      <stop offset="0%" stop-color="#fff4e8"/>
      <stop offset="100%" stop-color="#fde8d0"/>
    </linearGradient>
    <linearGradient id="sofa3" x1="0%" y1="0%" x2="0%" y2="100%">
      <stop offset="0%" stop-color="#c89858"/>
      <stop offset="100%" stop-color="#a87840"/>
    </linearGradient>
  </defs>
  <!-- Background -->
  <rect width="1440" height="600" fill="url(#bg3)"/>
  <circle cx="100" cy="80" r="160" fill="#ffd8c0" opacity="0.25"/>
  <circle cx="1380" cy="100" r="140" fill="#ffd8c0" opacity="0.25"/>
  <!-- Floor -->
  <rect x="0" y="490" width="1440" height="110" fill="#e8d0a8"/>
  <rect x="0" y="488" width="1440" height="5" fill="#d8c090"/>
  <!-- Rug -->
  <ellipse cx="720" cy="535" rx="360" ry="52" fill="#c09070" opacity="0.4"/>
  <ellipse cx="720" cy="533" rx="305" ry="40" fill="#b07860" opacity="0.25"/>
  <!-- SOFA -->
  <rect x="360" y="412" width="720" height="130" rx="22" fill="url(#sofa3)"/>
  <rect x="360" y="342" width="720" height="90" rx="16" fill="#b88848"/>
  <rect x="338" y="372" width="62" height="132" rx="14" fill="#c89858"/>
  <rect x="1040" y="372" width="62" height="132" rx="14" fill="#c89858"/>
  <rect x="380" y="417" width="680" height="28" rx="8" fill="#d8a868" opacity="0.35"/>
  <ellipse cx="560" cy="405" rx="158" ry="30" fill="#c09050" opacity="0.4"/>
  <ellipse cx="880" cy="405" rx="158" ry="30" fill="#c09050" opacity="0.4"/>
  <!-- ELDERLY PERSON (left, leaning forward looking at phone) -->
  <ellipse cx="532" cy="458" rx="74" ry="44" fill="#9090c8"/>
  <ellipse cx="532" cy="372" rx="67" ry="82" fill="#a8a8d8"/>
  <ellipse cx="532" cy="350" rx="22" ry="11" fill="#bcbce8" opacity="0.7"/>
  <ellipse cx="458" cy="418" rx="18" ry="55" fill="#f5d0b0" transform="rotate(38 458 418)"/>
  <ellipse cx="606" cy="413" rx="18" ry="52" fill="#f5d0b0" transform="rotate(-33 606 413)"/>
  <circle cx="433" cy="454" r="16" fill="#f5d0b0"/>
  <circle cx="629" cy="451" r="16" fill="#f5d0b0"/>
  <rect x="515" y="306" width="34" height="37" rx="9" fill="#f5d0b0"/>
  <!-- Head (tilted slightly down) -->
  <circle cx="532" cy="275" r="57" fill="#f5d0b0"/>
  <!-- Gray hair -->
  <ellipse cx="532" cy="230" rx="58" ry="36" fill="#b0b0b0"/>
  <ellipse cx="482" cy="250" rx="26" ry="45" fill="#a8a8a8"/>
  <ellipse cx="582" cy="250" rx="26" ry="45" fill="#b8b8b8"/>
  <ellipse cx="532" cy="240" rx="44" ry="22" fill="#bcbcbc"/>
  <!-- Eyes (looking down at phone, delighted) -->
  <ellipse cx="514" cy="272" rx="9" ry="8" fill="white"/>
  <circle cx="514" cy="275" r="5.5" fill="#4a3020"/>
  <circle cx="516" cy="273" r="2" fill="white"/>
  <ellipse cx="550" cy="272" rx="9" ry="8" fill="white"/>
  <circle cx="550" cy="275" r="5.5" fill="#4a3020"/>
  <circle cx="552" cy="273" r="2" fill="white"/>
  <!-- Eyebrows -->
  <path d="M504 259 Q514 254 524 259" fill="none" stroke="#909090" stroke-width="2.5" stroke-linecap="round"/>
  <path d="M540 259 Q550 254 560 259" fill="none" stroke="#909090" stroke-width="2.5" stroke-linecap="round"/>
  <path d="M530 290 Q532 296 534 290" fill="none" stroke="#d4a888" stroke-width="1.5"/>
  <!-- Big delighted smile -->
  <path d="M514 305 Q532 325 550 305" fill="none" stroke="#c06840" stroke-width="3" stroke-linecap="round"/>
  <!-- Cheeks (extra rosy) -->
  <circle cx="493" cy="296" r="18" fill="#f4a0a0" opacity="0.45"/>
  <circle cx="571" cy="296" r="18" fill="#f4a0a0" opacity="0.45"/>
  <!-- Wrinkles -->
  <path d="M493 278 Q487 284 493 290" fill="none" stroke="#e0b898" stroke-width="1.2"/>
  <path d="M571 278 Q577 284 571 290" fill="none" stroke="#e0b898" stroke-width="1.2"/>
  <!-- SMARTPHONE (between them) -->
  <rect x="655" y="385" width="92" height="158" rx="13" fill="#1a1a2e" stroke="#3a3a5e" stroke-width="2"/>
  <rect x="661" y="396" width="80" height="132" rx="9" fill="#c8eaff"/>
  <!-- Video call screen -->
  <rect x="661" y="396" width="80" height="82" rx="9" fill="#80c4ee"/>
  <!-- Face on screen (family member) -->
  <circle cx="701" cy="432" r="22" fill="#fde0c8"/>
  <ellipse cx="701" cy="415" rx="22" ry="14" fill="#2a1a0c"/>
  <circle cx="693" cy="430" r="4" fill="#4a3020"/>
  <circle cx="709" cy="430" r="4" fill="#4a3020"/>
  <path d="M693 441 Q701 450 709 441" fill="none" stroke="#c06840" stroke-width="2" stroke-linecap="round"/>
  <!-- Screen UI -->
  <rect x="665" y="482" width="72" height="40" rx="5" fill="#f0f8ff" opacity="0.95"/>
  <ellipse cx="701" cy="502" rx="25" ry="12" fill="#60c040" opacity="0.9"/>
  <text x="701" y="507" font-size="13" fill="white" text-anchor="middle" font-family="sans-serif">通話中</text>
  <ellipse cx="701" cy="538" rx="10" ry="5" fill="#2a2a4e"/>
  <circle cx="701" cy="399" r="3" fill="#2a2a4e"/>
  <!-- YOUNG WOMAN (right, helping) -->
  <ellipse cx="922" cy="458" rx="74" ry="44" fill="#98c8d8"/>
  <ellipse cx="908" cy="368" rx="67" ry="84" fill="#a8d8e8"/>
  <rect x="891" y="304" width="34" height="36" rx="9" fill="#f5d0b0"/>
  <ellipse cx="836" cy="413" rx="18" ry="52" fill="#f5d0b0" transform="rotate(30 836 413)"/>
  <ellipse cx="980" cy="398" rx="18" ry="55" fill="#f5d0b0" transform="rotate(-22 980 398)"/>
  <circle cx="816" cy="450" r="16" fill="#f5d0b0"/>
  <!-- Pointing finger -->
  <ellipse cx="803" cy="437" rx="8" ry="16" fill="#f5d0b0" transform="rotate(-28 803 437)"/>
  <circle cx="1002" cy="433" r="16" fill="#f5d0b0"/>
  <!-- Head -->
  <circle cx="908" cy="270" r="60" fill="#f5d0b0"/>
  <!-- Dark shoulder-length hair -->
  <ellipse cx="908" cy="223" rx="62" ry="38" fill="#1a1008"/>
  <ellipse cx="856" cy="248" rx="26" ry="52" fill="#1a1008"/>
  <ellipse cx="960" cy="248" rx="26" ry="52" fill="#1a1008"/>
  <ellipse cx="854" cy="302" rx="18" ry="56" fill="#1a1008"/>
  <ellipse cx="962" cy="302" rx="18" ry="56" fill="#1a1008"/>
  <!-- Eyes -->
  <ellipse cx="888" cy="265" rx="10" ry="11" fill="white"/>
  <circle cx="887" cy="267" r="6.5" fill="#1a1008"/>
  <circle cx="885" cy="264" r="2.5" fill="white"/>
  <ellipse cx="928" cy="265" rx="10" ry="11" fill="white"/>
  <circle cx="927" cy="267" r="6.5" fill="#1a1008"/>
  <circle cx="925" cy="264" r="2.5" fill="white"/>
  <!-- Eyebrows -->
  <path d="M876 251 Q888 245 900 251" fill="none" stroke="#1a1008" stroke-width="2.5" stroke-linecap="round"/>
  <path d="M916 251 Q928 245 940 251" fill="none" stroke="#1a1008" stroke-width="2.5" stroke-linecap="round"/>
  <path d="M906 281 Q908 288 910 281" fill="none" stroke="#d4a888" stroke-width="1.5"/>
  <!-- Warm smile -->
  <path d="M888 296 Q908 314 928 296" fill="none" stroke="#c06840" stroke-width="3" stroke-linecap="round"/>
  <!-- Cheeks -->
  <circle cx="868" cy="284" r="16" fill="#f4a0a0" opacity="0.45"/>
  <circle cx="948" cy="284" r="16" fill="#f4a0a0" opacity="0.45"/>
  <!-- Success bubble -->
  <rect x="295" y="195" width="175" height="92" rx="22" fill="white" opacity="0.93" stroke="#f0d0b8" stroke-width="2"/>
  <polygon points="378 287 352 328 425 287" fill="white" opacity="0.93"/>
  <text x="350" y="243" font-size="32" fill="#e8613a" text-anchor="middle">！</text>
  <text x="395" y="243" font-size="27" fill="#60c080" text-anchor="middle">★</text>
  <text x="375" y="272" font-size="19" fill="#5a4030" text-anchor="middle" font-family="sans-serif">できた！</text>
  <!-- Small floating hearts -->
  <text x="974" y="198" font-size="23" fill="#e86060" opacity="0.32" transform="rotate(10 974 198)">♥</text>
  <text x="1006" y="172" font-size="17" fill="#f0a040" opacity="0.28">♥</text>
  <!-- Plant LEFT -->
  <g transform="translate(55,278)">
    <rect x="30" y="170" width="20" height="90" fill="#8b6240"/>
    <ellipse cx="40" cy="155" rx="52" ry="42" fill="#78bc70"/>
    <ellipse cx="13" cy="175" rx="34" ry="30" fill="#68ac60"/>
    <ellipse cx="67" cy="170" rx="34" ry="30" fill="#88cc78"/>
    <rect x="20" y="258" width="40" height="8" rx="4" fill="#c87840"/>
    <path d="M18 266 L22 302 L58 302 L62 266 Z" fill="#d88850"/>
  </g>
  <!-- Lamp RIGHT -->
  <rect x="1202" y="298" width="13" height="202" rx="6" fill="#d4a870"/>
  <ellipse cx="1208" cy="498" rx="36" ry="13" fill="#c49060"/>
  <path d="M1162 308 L1255 308 L1240 182 L1176 182 Z" fill="#f8d880" opacity="0.9"/>
  <ellipse cx="1208" cy="325" rx="105" ry="65" fill="#fff8c0" opacity="0.18"/>
  <!-- Wall photo frame -->
  <rect x="1055" y="118" width="162" height="122" rx="9" fill="white" stroke="#d4a870" stroke-width="4"/>
  <rect x="1063" y="126" width="146" height="106" rx="5" fill="#c8e8e0"/>
  <circle cx="1108" cy="158" r="20" fill="#fde0c8"/>
  <circle cx="1158" cy="161" r="18" fill="#fde0c8"/>
  <ellipse cx="1108" cy="142" rx="20" ry="13" fill="#2a1a0c"/>
  <ellipse cx="1158" cy="146" rx="18" ry="12" fill="#b0b0b0"/>
  <text x="1136" y="218" font-size="22" fill="#e86060" text-anchor="middle" opacity="0.7">♥</text>
  <!-- Decorative circles on wall -->
  <circle cx="380" cy="150" r="45" fill="#f0c8a0" opacity="0.2"/>
  <circle cx="355" cy="178" r="30" fill="#f0c8a0" opacity="0.15"/>
</svg>
