<svg xmlns="http://www.w3.org/2000/svg" viewBox="0 0 1440 600" preserveAspectRatio="xMidYMid slice">
  <defs>
    <linearGradient id="bg1" x1="0%" y1="0%" x2="100%" y2="100%">
      <stop offset="0%" stop-color="#fff8f2"/>
      <stop offset="100%" stop-color="#fde4cc"/>
    </linearGradient>
    <linearGradient id="floor1" x1="0%" y1="0%" x2="0%" y2="100%">
      <stop offset="0%" stop-color="#f5d8b8"/>
      <stop offset="100%" stop-color="#e8c8a0"/>
    </linearGradient>
  </defs>
  <!-- Background -->
  <rect width="1440" height="600" fill="url(#bg1)"/>
  <circle cx="200" cy="100" r="180" fill="#fce8d8" opacity="0.35"/>
  <circle cx="1300" cy="150" r="160" fill="#fce8d8" opacity="0.35"/>
  <circle cx="720" cy="50" r="200" fill="#fef0e8" opacity="0.25"/>
  <!-- Floor -->
  <rect x="0" y="490" width="1440" height="110" fill="url(#floor1)"/>
  <rect x="0" y="488" width="1440" height="5" fill="#e0c090"/>
  <!-- Window -->
  <rect x="590" y="80" width="260" height="220" rx="8" fill="#e8f4ff" opacity="0.6" stroke="#d0c0a8" stroke-width="3"/>
  <line x1="720" y1="80" x2="720" y2="300" stroke="#d0c0a8" stroke-width="3"/>
  <line x1="590" y1="190" x2="850" y2="190" stroke="#d0c0a8" stroke-width="3"/>
  <rect x="595" y="85" width="120" height="100" fill="#fff8e0" opacity="0.4"/>
  <rect x="725" y="85" width="120" height="100" fill="#fff8e0" opacity="0.35"/>
  <!-- Table -->
  <rect x="560" y="400" width="320" height="18" rx="9" fill="#c8855c"/>
  <rect x="620" y="418" width="18" height="88" rx="4" fill="#b8754c"/>
  <rect x="802" y="418" width="18" height="88" rx="4" fill="#b8754c"/>
  <rect x="562" y="400" width="316" height="7" rx="7" fill="#d8956c" opacity="0.5"/>
  <!-- Tea cup LEFT -->
  <g transform="translate(622,360)">
    <ellipse cx="28" cy="40" rx="30" ry="11" fill="#f0e0d0" stroke="#c8855c" stroke-width="2"/>
    <rect x="2" y="8" width="52" height="32" rx="8" fill="white" stroke="#c8855c" stroke-width="2"/>
    <ellipse cx="28" cy="8" rx="26" ry="8" fill="white" stroke="#c8855c" stroke-width="2"/>
    <path d="M54 16 Q68 22 54 28" fill="none" stroke="#c8855c" stroke-width="2.5"/>
    <ellipse cx="28" cy="9" rx="18" ry="5" fill="#d4a870" opacity="0.5"/>
    <path d="M16 2 Q20 -10 16 -22" fill="none" stroke="#ccc" stroke-width="1.5" stroke-linecap="round" opacity="0.6"/>
    <path d="M30 0 Q34 -12 30 -24" fill="none" stroke="#ccc" stroke-width="1.5" stroke-linecap="round" opacity="0.6"/>
  </g>
  <!-- Tea cup RIGHT -->
  <g transform="translate(758,360)">
    <ellipse cx="28" cy="40" rx="30" ry="11" fill="#f0e0d0" stroke="#c8855c" stroke-width="2"/>
    <rect x="2" y="8" width="52" height="32" rx="8" fill="white" stroke="#c8855c" stroke-width="2"/>
    <ellipse cx="28" cy="8" rx="26" ry="8" fill="white" stroke="#c8855c" stroke-width="2"/>
    <path d="M54 16 Q68 22 54 28" fill="none" stroke="#c8855c" stroke-width="2.5"/>
    <ellipse cx="28" cy="9" rx="18" ry="5" fill="#d4a870" opacity="0.5"/>
    <path d="M16 2 Q20 -10 16 -22" fill="none" stroke="#ccc" stroke-width="1.5" stroke-linecap="round" opacity="0.6"/>
  </g>
  <!-- ELDERLY WOMAN (left) -->
  <ellipse cx="370" cy="480" rx="78" ry="42" fill="#e8a4c4"/>
  <ellipse cx="370" cy="398" rx="64" ry="80" fill="#e8b4cc"/>
  <ellipse cx="370" cy="354" rx="24" ry="11" fill="#f5c8d8" opacity="0.7"/>
  <ellipse cx="450" cy="408" rx="18" ry="50" fill="#fde0c8" transform="rotate(25 450 408)"/>
  <ellipse cx="290" cy="418" rx="18" ry="48" fill="#fde0c8" transform="rotate(-25 290 418)"/>
  <circle cx="478" cy="432" r="15" fill="#fde0c8"/>
  <circle cx="262" cy="442" r="15" fill="#fde0c8"/>
  <rect x="354" y="328" width="32" height="38" rx="10" fill="#fde0c8"/>
  <circle cx="370" cy="293" r="57" fill="#fde0c8"/>
  <!-- Gray hair -->
  <ellipse cx="370" cy="248" rx="58" ry="36" fill="#b0b0b0"/>
  <ellipse cx="322" cy="268" rx="27" ry="44" fill="#a8a8a8"/>
  <ellipse cx="418" cy="268" rx="27" ry="44" fill="#b8b8b8"/>
  <ellipse cx="370" cy="258" rx="44" ry="22" fill="#bcbcbc"/>
  <ellipse cx="356" cy="250" rx="18" ry="11" fill="#c8c8c8" opacity="0.5"/>
  <!-- Eyes -->
  <ellipse cx="353" cy="287" rx="9" ry="10" fill="white"/>
  <circle cx="354" cy="288" r="6" fill="#4a3020"/>
  <circle cx="356" cy="285" r="2" fill="white"/>
  <ellipse cx="387" cy="287" rx="9" ry="10" fill="white"/>
  <circle cx="388" cy="288" r="6" fill="#4a3020"/>
  <circle cx="390" cy="285" r="2" fill="white"/>
  <!-- Eyebrows -->
  <path d="M344 274 Q353 269 362 274" fill="none" stroke="#909090" stroke-width="2.5" stroke-linecap="round"/>
  <path d="M378 274 Q387 269 396 274" fill="none" stroke="#909090" stroke-width="2.5" stroke-linecap="round"/>
  <path d="M374 301 Q376 307 378 301" fill="none" stroke="#d4a888" stroke-width="1.5"/>
  <!-- Smile -->
  <path d="M354 315 Q370 332 386 315" fill="none" stroke="#c06840" stroke-width="3" stroke-linecap="round"/>
  <!-- Cheeks -->
  <circle cx="334" cy="308" r="17" fill="#f4a0a0" opacity="0.35"/>
  <circle cx="406" cy="308" r="17" fill="#f4a0a0" opacity="0.35"/>
  <!-- Wrinkles -->
  <path d="M334 293 Q328 299 334 305" fill="none" stroke="#e8c0a8" stroke-width="1.2"/>
  <path d="M406 293 Q412 299 406 305" fill="none" stroke="#e8c0a8" stroke-width="1.2"/>
  <!-- Earrings -->
  <circle cx="316" cy="296" r="6" fill="#e8c050"/>
  <circle cx="424" cy="296" r="6" fill="#e8c050"/>
  <!-- YOUNG WOMAN (right) -->
  <ellipse cx="1070" cy="480" rx="78" ry="42" fill="#90c8e8"/>
  <ellipse cx="1070" cy="398" rx="64" ry="80" fill="#a8d4ec"/>
  <rect x="1053" y="328" width="34" height="38" rx="10" fill="#fde0c8"/>
  <ellipse cx="990" cy="408" rx="18" ry="50" fill="#fde0c8" transform="rotate(25 990 408)"/>
  <ellipse cx="1150" cy="418" rx="18" ry="48" fill="#fde0c8" transform="rotate(-25 1150 418)"/>
  <circle cx="962" cy="432" r="15" fill="#fde0c8"/>
  <circle cx="1178" cy="442" r="15" fill="#fde0c8"/>
  <circle cx="1070" cy="293" r="57" fill="#fde0c8"/>
  <!-- Dark hair -->
  <ellipse cx="1070" cy="248" rx="58" ry="36" fill="#2a1a0c"/>
  <ellipse cx="1018" cy="268" rx="26" ry="50" fill="#2a1a0c"/>
  <ellipse cx="1122" cy="268" rx="26" ry="50" fill="#2a1a0c"/>
  <ellipse cx="1016" cy="320" rx="18" ry="62" fill="#2a1a0c"/>
  <ellipse cx="1124" cy="320" rx="18" ry="62" fill="#2a1a0c"/>
  <ellipse cx="1054" cy="250" rx="17" ry="10" fill="#3a2a1c" opacity="0.5"/>
  <!-- Eyes -->
  <ellipse cx="1052" cy="287" rx="9" ry="10" fill="white"/>
  <circle cx="1053" cy="288" r="6" fill="#2a1a0c"/>
  <circle cx="1055" cy="285" r="2" fill="white"/>
  <ellipse cx="1088" cy="287" rx="9" ry="10" fill="white"/>
  <circle cx="1089" cy="288" r="6" fill="#2a1a0c"/>
  <circle cx="1091" cy="285" r="2" fill="white"/>
  <!-- Eyebrows -->
  <path d="M1042 274 Q1052 268 1062 274" fill="none" stroke="#2a1a0c" stroke-width="2.5" stroke-linecap="round"/>
  <path d="M1078 274 Q1088 268 1098 274" fill="none" stroke="#2a1a0c" stroke-width="2.5" stroke-linecap="round"/>
  <path d="M1068 301 Q1070 307 1072 301" fill="none" stroke="#d4a888" stroke-width="1.5"/>
  <!-- Smile -->
  <path d="M1052 315 Q1070 333 1088 315" fill="none" stroke="#c06840" stroke-width="3" stroke-linecap="round"/>
  <!-- Cheeks -->
  <circle cx="1032" cy="308" r="17" fill="#f4a0a0" opacity="0.45"/>
  <circle cx="1108" cy="308" r="17" fill="#f4a0a0" opacity="0.45"/>
  <!-- Speech bubble (elder) -->
  <rect x="428" y="180" width="148" height="84" rx="20" fill="white" opacity="0.92" stroke="#f0d0b8" stroke-width="2"/>
  <polygon points="450 264 428 298 495 264" fill="white" opacity="0.92"/>
  <text x="476" y="225" font-size="30" fill="#e8613a" text-anchor="middle" font-family="serif">♪</text>
  <text x="516" y="255" font-size="24" fill="#e87060" text-anchor="middle">♥</text>
  <!-- Speech bubble (young) -->
  <rect x="864" y="180" width="148" height="84" rx="20" fill="white" opacity="0.92" stroke="#f0d0b8" stroke-width="2"/>
  <polygon points="980 264 1010 298 940 264" fill="white" opacity="0.92"/>
  <text x="912" y="225" font-size="26" fill="#60b8d0" text-anchor="middle">☺</text>
  <text x="952" y="255" font-size="24" fill="#e87060" text-anchor="middle">♥</text>
  <!-- Plant LEFT -->
  <g transform="translate(90,310)">
    <rect x="28" y="165" width="20" height="85" fill="#8b6240"/>
    <ellipse cx="38" cy="150" rx="50" ry="40" fill="#78bc70"/>
    <ellipse cx="12" cy="170" rx="33" ry="28" fill="#68ac60"/>
    <ellipse cx="64" cy="165" rx="33" ry="28" fill="#88cc78"/>
    <rect x="18" y="248" width="40" height="8" rx="4" fill="#c87840"/>
    <path d="M16 256 L20 292 L56 292 L60 256 Z" fill="#d88850"/>
  </g>
  <!-- Plant RIGHT -->
  <g transform="translate(1280,310)">
    <rect x="28" y="165" width="20" height="85" fill="#8b6240"/>
    <ellipse cx="38" cy="150" rx="50" ry="40" fill="#78bc70"/>
    <ellipse cx="12" cy="170" rx="33" ry="28" fill="#68ac60"/>
    <ellipse cx="64" cy="165" rx="33" ry="28" fill="#88cc78"/>
    <rect x="18" y="248" width="40" height="8" rx="4" fill="#c87840"/>
    <path d="M16 256 L20 292 L56 292 L60 256 Zerm" fill="#d88850"/>
  </g>
  <!-- Decorative hearts -->
  <text x="215" y="200" font-size="26" fill="#e86060" opacity="0.18" transform="rotate(-12 215 200)">♥</text>
  <text x="1185" y="175" font-size="22" fill="#e86060" opacity="0.18" transform="rotate(8 1185 175)">♥</text>
  <text x="690" y="68" font-size="18" fill="#f0a040" opacity="0.22">♥</text>
  <text x="755" y="52" font-size="22" fill="#e86060" opacity="0.18">♥</text>
</svg>
